<mxfile host="www.draw.io" modified="2020-05-27T09:31:53.564Z" agent="5.0 (X11; Linux x86_64) AppleWebKit/537.36 (KHTML, like Gecko) Chrome/80.0.3987.149 Safari/537.36" etag="wlDdSUxaxt6VklKPqe0b" version="13.1.3" type="github">
  <diagram name="Page-1" id="5f0bae14-7c28-e335-631c-24af17079c00">
    <mxGraphModel dx="1158" dy="718" grid="1" gridSize="10" guides="1" tooltips="1" connect="1" arrows="1" fold="1" page="1" pageScale="1" pageWidth="1100" pageHeight="850" background="#ffffff" math="0" shadow="0">
      <root>
        <mxCell id="0" />
        <mxCell id="1" parent="0" />
        <mxCell id="2BbbxaQr6hZSvzHqME9C-2" value="&lt;font style=&quot;font-size: 24px&quot;&gt;Server&lt;/font&gt;" style="rounded=0;whiteSpace=wrap;html=1;" vertex="1" parent="1">
          <mxGeometry x="25" y="340" width="430" height="100" as="geometry" />
        </mxCell>
        <mxCell id="2BbbxaQr6hZSvzHqME9C-3" value="&lt;font style=&quot;font-size: 24px&quot;&gt;Client&lt;/font&gt;" style="rounded=0;whiteSpace=wrap;html=1;" vertex="1" parent="1">
          <mxGeometry x="385" y="590" width="260" height="70" as="geometry" />
        </mxCell>
        <mxCell id="2BbbxaQr6hZSvzHqME9C-6" value="&lt;font style=&quot;font-size: 24px&quot;&gt;COS&lt;/font&gt;" style="shape=dataStorage;whiteSpace=wrap;html=1;" vertex="1" parent="1">
          <mxGeometry x="745" y="250" width="220" height="110" as="geometry" />
        </mxCell>
        <mxCell id="2BbbxaQr6hZSvzHqME9C-13" style="edgeStyle=orthogonalEdgeStyle;rounded=0;orthogonalLoop=1;jettySize=auto;html=1;" edge="1" parent="1" source="2BbbxaQr6hZSvzHqME9C-7">
          <mxGeometry relative="1" as="geometry">
            <mxPoint x="45" y="240" as="targetPoint" />
          </mxGeometry>
        </mxCell>
        <mxCell id="2BbbxaQr6hZSvzHqME9C-7" value="&lt;font style=&quot;font-size: 24px&quot;&gt;DMS&lt;br&gt;文件管理系统&lt;/font&gt;" style="shape=dataStorage;whiteSpace=wrap;html=1;" vertex="1" parent="1">
          <mxGeometry x="25" y="250" width="180" height="80" as="geometry" />
        </mxCell>
        <mxCell id="2BbbxaQr6hZSvzHqME9C-8" value="&lt;font style=&quot;font-size: 18px&quot;&gt;职责:&lt;br&gt;维护目录树;&lt;br&gt;统计已使用空间;&lt;br&gt;记录操作历史;&lt;/font&gt;" style="shape=note;whiteSpace=wrap;html=1;backgroundOutline=1;darkOpacity=0.05;" vertex="1" parent="1">
          <mxGeometry x="35" y="140" width="165" height="100" as="geometry" />
        </mxCell>
        <mxCell id="2BbbxaQr6hZSvzHqME9C-15" value="&lt;font style=&quot;font-size: 18px&quot;&gt;职责:&lt;br&gt;生成密钥;&lt;br&gt;文件的存取;&lt;/font&gt;" style="shape=note;whiteSpace=wrap;html=1;backgroundOutline=1;darkOpacity=0.05;" vertex="1" parent="1">
          <mxGeometry x="765" y="130" width="210" height="100" as="geometry" />
        </mxCell>
        <mxCell id="2BbbxaQr6hZSvzHqME9C-17" value="" style="endArrow=classic;html=1;exitX=0;exitY=0.5;exitDx=0;exitDy=0;entryX=0.482;entryY=1.029;entryDx=0;entryDy=0;entryPerimeter=0;" edge="1" parent="1" source="2BbbxaQr6hZSvzHqME9C-3" target="2BbbxaQr6hZSvzHqME9C-2">
          <mxGeometry width="50" height="50" relative="1" as="geometry">
            <mxPoint x="305" y="540" as="sourcePoint" />
            <mxPoint x="355" y="490" as="targetPoint" />
            <Array as="points">
              <mxPoint x="232" y="625" />
            </Array>
          </mxGeometry>
        </mxCell>
        <mxCell id="2BbbxaQr6hZSvzHqME9C-18" value="" style="endArrow=classic;html=1;exitX=1;exitY=0.5;exitDx=0;exitDy=0;entryX=0.5;entryY=1;entryDx=0;entryDy=0;" edge="1" parent="1" source="2BbbxaQr6hZSvzHqME9C-3" target="2BbbxaQr6hZSvzHqME9C-6">
          <mxGeometry width="50" height="50" relative="1" as="geometry">
            <mxPoint x="945" y="625" as="sourcePoint" />
            <mxPoint x="800" y="460" as="targetPoint" />
            <Array as="points">
              <mxPoint x="855" y="625" />
            </Array>
          </mxGeometry>
        </mxCell>
        <mxCell id="2BbbxaQr6hZSvzHqME9C-22" value="" style="endArrow=classic;html=1;exitX=1.001;exitY=0.374;exitDx=0;exitDy=0;entryX=0;entryY=0.25;entryDx=0;entryDy=0;exitPerimeter=0;" edge="1" parent="1" source="2BbbxaQr6hZSvzHqME9C-31" target="2BbbxaQr6hZSvzHqME9C-6">
          <mxGeometry width="50" height="50" relative="1" as="geometry">
            <mxPoint x="445" y="490" as="sourcePoint" />
            <mxPoint x="495" y="440" as="targetPoint" />
          </mxGeometry>
        </mxCell>
        <mxCell id="2BbbxaQr6hZSvzHqME9C-23" value="&lt;font style=&quot;font-size: 18px&quot;&gt;转发client的文件操作&lt;/font&gt;" style="edgeLabel;html=1;align=center;verticalAlign=middle;resizable=0;points=[];" vertex="1" connectable="0" parent="2BbbxaQr6hZSvzHqME9C-22">
          <mxGeometry x="-0.3604" y="-2" relative="1" as="geometry">
            <mxPoint x="10.61" y="-17.799999999999997" as="offset" />
          </mxGeometry>
        </mxCell>
        <mxCell id="2BbbxaQr6hZSvzHqME9C-24" value="" style="endArrow=classic;html=1;exitX=1.001;exitY=0.889;exitDx=0;exitDy=0;entryX=0;entryY=0.25;entryDx=0;entryDy=0;exitPerimeter=0;" edge="1" parent="1" source="2BbbxaQr6hZSvzHqME9C-31">
          <mxGeometry width="50" height="50" relative="1" as="geometry">
            <mxPoint x="465" y="320" as="sourcePoint" />
            <mxPoint x="745" y="322.5" as="targetPoint" />
          </mxGeometry>
        </mxCell>
        <mxCell id="2BbbxaQr6hZSvzHqME9C-25" value="&lt;font style=&quot;font-size: 18px&quot;&gt;为客户端获取密钥&lt;/font&gt;" style="edgeLabel;html=1;align=center;verticalAlign=middle;resizable=0;points=[];" vertex="1" connectable="0" parent="2BbbxaQr6hZSvzHqME9C-24">
          <mxGeometry x="-0.3604" y="-2" relative="1" as="geometry">
            <mxPoint x="-3.1500000000000004" y="-18.560000000000002" as="offset" />
          </mxGeometry>
        </mxCell>
        <mxCell id="2BbbxaQr6hZSvzHqME9C-28" value="&lt;font style=&quot;font-size: 18px&quot;&gt;&lt;span style=&quot;color: rgb(0 , 0 , 0) ; font-family: &amp;#34;helvetica&amp;#34; ; font-style: normal ; font-weight: 400 ; letter-spacing: normal ; text-align: center ; text-indent: 0px ; text-transform: none ; word-spacing: 0px ; background-color: rgb(248 , 249 , 250) ; float: none ; display: inline&quot;&gt;文件的删&amp;amp;改&amp;amp;查;&lt;/span&gt;&lt;br style=&quot;color: rgb(0 , 0 , 0) ; font-family: &amp;#34;helvetica&amp;#34; ; font-style: normal ; font-weight: 400 ; letter-spacing: normal ; text-align: center ; text-indent: 0px ; text-transform: none ; word-spacing: 0px ; background-color: rgb(248 , 249 , 250)&quot;&gt;&lt;span style=&quot;color: rgb(0 , 0 , 0) ; font-family: &amp;#34;helvetica&amp;#34; ; font-style: normal ; font-weight: 400 ; letter-spacing: normal ; text-align: center ; text-indent: 0px ; text-transform: none ; word-spacing: 0px ; background-color: rgb(248 , 249 , 250) ; float: none ; display: inline&quot;&gt;文件夹的增&amp;amp;删&amp;amp;改&amp;amp;查;&lt;/span&gt;&lt;br style=&quot;color: rgb(0 , 0 , 0) ; font-family: &amp;#34;helvetica&amp;#34; ; font-style: normal ; font-weight: 400 ; letter-spacing: normal ; text-align: center ; text-indent: 0px ; text-transform: none ; word-spacing: 0px ; background-color: rgb(248 , 249 , 250)&quot;&gt;&lt;span style=&quot;color: rgb(0 , 0 , 0) ; font-family: &amp;#34;helvetica&amp;#34; ; font-style: normal ; font-weight: 400 ; letter-spacing: normal ; text-align: center ; text-indent: 0px ; text-transform: none ; word-spacing: 0px ; background-color: rgb(248 , 249 , 250) ; float: none ; display: inline&quot;&gt;获取密钥;&lt;/span&gt;&lt;/font&gt;" style="text;whiteSpace=wrap;html=1;" vertex="1" parent="1">
          <mxGeometry x="35" y="500" width="210" height="80" as="geometry" />
        </mxCell>
        <mxCell id="2BbbxaQr6hZSvzHqME9C-30" value="&lt;span style=&quot;text-align: center&quot;&gt;&lt;font style=&quot;font-size: 18px&quot;&gt;文件的上传&amp;amp;下载&lt;/font&gt;&lt;/span&gt;" style="text;whiteSpace=wrap;html=1;" vertex="1" parent="1">
          <mxGeometry x="865" y="500" width="210" height="80" as="geometry" />
        </mxCell>
        <mxCell id="2BbbxaQr6hZSvzHqME9C-31" value="&lt;font style=&quot;font-size: 24px&quot;&gt;COS SDK&lt;/font&gt;" style="rounded=0;whiteSpace=wrap;html=1;" vertex="1" parent="1">
          <mxGeometry x="235" y="250" width="220" height="80" as="geometry" />
        </mxCell>
        <mxCell id="2BbbxaQr6hZSvzHqME9C-35" value="&lt;font style=&quot;font-size: 18px&quot;&gt;模块划分&lt;/font&gt;" style="shape=note;whiteSpace=wrap;html=1;backgroundOutline=1;darkOpacity=0.05;" vertex="1" parent="1">
          <mxGeometry x="10" y="10" width="200" height="70" as="geometry" />
        </mxCell>
      </root>
    </mxGraphModel>
  </diagram>
</mxfile>
